<?xml version="1.0" standalone="no"?><!DOCTYPE svg PUBLIC "-//W3C//DTD SVG 1.1//EN" "http://www.w3.org/Graphics/SVG/1.1/DTD/svg11.dtd"><svg t="1526831600593" class="icon" style="" viewBox="0 0 1024 1024" version="1.1" xmlns="http://www.w3.org/2000/svg" p-id="8343" xmlns:xlink="http://www.w3.org/1999/xlink" width="200" height="200"><defs><style type="text/css"></style></defs><path d="M526.933333 117.333333v136.533334l215.466667 117.333333 117.333333-66.133333m-695.466666-2.133334l334.933333-185.6v136.533334l-215.466667 117.333333-119.466666-68.266667zM149.333333 706.133333V328.533333l119.466667 68.266667V640L149.333333 706.133333z m23.466667 19.2l326.4 181.333334v-140.8l-202.666667-108.8L172.8 725.333333z m701.866667-19.2V328.533333l-119.466667 68.266667V640l119.466667 66.133333z m-23.466667 19.2l-326.4 181.333334v-140.8l202.666667-108.8 123.733333 68.266666z" fill="#B4EBFC" p-id="8344"></path><path d="M311.466667 386.133333L512 277.333333l200.533333 108.8-200.533333 115.2-200.533333-115.2z m215.466666 347.733334l200.533334-108.8v-213.333334l-200.533334 113.066667v209.066667z m-29.866666 0l-200.533334-108.8v-213.333334l200.533334 113.066667v209.066667z" fill="#05BFF5" p-id="8345"></path></svg>